<svg width="164" height="164" viewBox="0 0 164 164" fill="none" xmlns="http://www.w3.org/2000/svg">
<path d="M82 10.25C67.8092 10.25 53.9371 14.4581 42.1378 22.3421C30.3386 30.226 21.1422 41.4319 15.7116 54.5425C10.2811 67.6531 8.86017 82.0796 11.6287 95.9977C14.3971 109.916 21.2307 122.7 31.2651 132.735C41.2995 142.769 54.0841 149.603 68.0023 152.371C81.9204 155.14 96.3469 153.719 109.458 148.288C122.568 142.858 133.774 133.661 141.658 121.862C149.542 110.063 153.75 96.1908 153.75 82C153.75 62.9707 146.191 44.7208 132.735 31.2651C119.279 17.8094 101.029 10.25 82 10.25ZM120.166 86.5869L58.6659 117.337C57.8843 117.727 57.0159 117.912 56.1431 117.872C55.2703 117.833 54.4221 117.571 53.6791 117.111C52.9361 116.651 52.3228 116.01 51.8977 115.246C51.4726 114.483 51.2496 113.624 51.25 112.75V51.25C51.2505 50.3767 51.4741 49.5181 51.8996 48.7555C52.3251 47.9929 52.9384 47.3517 53.6813 46.8927C54.4242 46.4338 55.272 46.1722 56.1444 46.1329C57.0168 46.0936 57.8847 46.2779 58.6659 46.6683L120.166 77.4183C121.016 77.8443 121.731 78.4986 122.23 79.3077C122.73 80.1169 122.995 81.0491 122.995 82C122.995 82.9509 122.73 83.8831 122.23 84.6923C121.731 85.5014 121.016 86.1557 120.166 86.5817V86.5869Z" fill="#FFC701" fill-opacity="0.86"/>
</svg>
